<?xml version="1.0" encoding="UTF-8" standalone="no"?>
<!DOCTYPE svg PUBLIC "-//W3C//DTD SVG 1.1//EN" "http://www.w3.org/Graphics/SVG/1.1/DTD/svg11.dtd">
<svg width="100%" height="100%" viewBox="0 0 452 520" version="1.1" xmlns="http://www.w3.org/2000/svg" xmlns:xlink="http://www.w3.org/1999/xlink" xml:space="preserve" xmlns:serif="http://www.serif.com/" style="fill-rule:evenodd;clip-rule:evenodd;stroke-linejoin:round;stroke-miterlimit:2;">
    <path d="M41,460L0,0L451,0L410,460L225,512" style="fill:rgb(227,79,38);fill-rule:nonzero;"/>
    <path d="M226,472L375,431L410,37L226,37" style="fill:rgb(239,101,42);fill-rule:nonzero;"/>
    <path d="M226,208L151,208L146,150L226,150L226,94L84,94L99,265L226,265L226,208ZM226,355L162,338L158,293L102,293L109,382L226,414L226,355Z" style="fill:rgb(236,237,238);fill-rule:nonzero;"/>
    <path d="M226,265L295,265L288,338L226,355L226,414L341,382L357,208L226,208L226,265ZM226,94L226,150L362,150L367,94L226,94Z" style="fill:white;fill-rule:nonzero;"/>
</svg>
